<?xml version="1.0" standalone="no"?>
<svg version="1.0" xmlns="http://www.w3.org/2000/svg" width="50.000000pt" height="50.000000pt" viewBox="0 0 50.000000 50.000000" preserveAspectRatio="xMidYMid meet">
    <g transform="translate(0.000000,50.000000) scale(0.018051,-0.017986)" fill="#000000 " stroke="none">
        <path d="M0 1390 l0 -1390 1385 0 1385 0 0 1390 0 1390 -1385 0 -1385 0 0 -1390z m2700 0 l0 -1320 -1315 0 -1315 0 0 1320 0 1320 1315 0 1315 0 0 -1320z"/>
        <path d="M1337 1399 c-449 -446 -817 -815 -817 -820 0 -5 20 -9 44 -9 l45 0 815 811 c449 446 816 815 816 820 0 5 -19 9 -43 9 l-43 0 -817 -811z"/>
        <path d="M570 1930 l0 -270 45 0 45 0 0 105 0 105 135 0 135 0 0 40 0 40 -135 0 -135 0 0 85 0 85 155 0 155 0 0 40 0 40 -200 0 -200 0 0 -270z"/>
        <path d="M1887 1108 c-3 -7 -51 -123 -107 -258 -56 -135 -104 -251 -107 -257 -4 -9 9 -13 43 -13 l49 0 23 60 24 61 126 -3 126 -3 22 -55 c22 -55 22 -55 68 -58 25 -2 46 1 46 5 0 4 -47 125 -103 268 l-104 260 -50 3 c-34 2 -52 -1 -56 -10z m55 -336 c-52 -1 -96 -1 -98 1 -2 2 12 41 32 88 20 46 42 100 50 119 l15 35 47 -120 48 -120 -94 -3z"/>
    </g>
</svg>