<svg height="256" preserveAspectRatio="xMidYMid" viewBox="0 0 256 256" width="256" xmlns="http://www.w3.org/2000/svg"><path d="m16.9353846 128c0 44.012308 25.6 81.92 62.6215385 99.938462l-52.9723077-145.1323082c-6.3608603 14.2177526-9.6492308 29.6180632-9.6492308 45.1938462zm111.0646154 111.064615c12.898462 0 25.304615-2.264615 36.923077-6.301538l-.787692-1.476923-34.166154-93.538462-33.2800002 96.787693c9.8461542 2.953846 20.3815382 4.52923 31.3107692 4.52923zm15.261538-163.1507688 40.172308 119.4338458 11.126154-37.021538c4.726154-15.36 8.369231-26.387692 8.369231-35.938462 0-13.784615-4.923077-23.2369228-9.058462-30.5230766-5.710769-9.2553846-10.929231-17.0338462-10.929231-26.0923077 0-10.24 7.68-19.6923077 18.707693-19.6923077h1.378461c-20.464825-18.7873383-47.246925-29.1908837-75.027692-29.1447691-37.3664961-.0068157-72.227379 18.7928961-92.7507692 50.0186153l7.0892307.196923c11.6184616 0 29.5384616-1.476923 29.5384616-1.476923 6.1046154-.2953847 6.7938461 8.4676923.7876923 9.156923 0 0-6.0061539.7876923-12.8 1.083077l40.5661536 120.3199998 24.32-72.861538-17.329231-47.4584618c-3.881638-.2141922-7.7561347-.5425394-11.6184611-.9846154-6.0061538-.3938462-5.3169231-9.5507693.6892308-9.2553846 0 0 18.3138463 1.476923 29.2430773 1.476923 11.618461 0 29.538461-1.476923 29.538461-1.476923 6.006154-.2953847 6.793846 8.4676923.787692 9.156923 0 0-6.006153.6892308-12.8 1.083077zm40.566154 148.0861538c34.192744-19.881572 55.232068-56.447243 55.236923-96 0-19.298462-4.923077-37.4153846-13.587692-53.2676923 1.759583 17.4403146-.880893 35.0434883-7.68 51.2000003zm-55.827692 32c-70.692448 0-128-57.307552-128-128s57.307552-128 128-128 128 57.307552 128 128-57.307552 128-128 128z" fill="#fff"/></svg>